<!--?xml version="1.0" encoding="utf-8"?--><svg style="display:block;width:100%;height:100%;" version="1.1" id="Layer_1" xmlns="http://www.w3.org/2000/svg" xmlns:xlink="http://www.w3.org/1999/xlink" viewBox="0 0 100 100" xml:space="preserve">
<g>
<g id="shape">

		<path fill="#1A1A1A" d="M52.251,48.75c0,0,9-10.5,19.5-9.5s11.739-16.669-14.5-22.5c-4.5-1-17,3-11,25"></path>
		<path fill="#1A1A1A" d="M48.142,53.611c0,0-9,10.5-19.5,9.5c-10.5-1-11.739,16.669,14.5,22.5c4.5,1,17-3,11-25"></path>
		<path fill="#1A1A1A" d="M47.766,49.126c0,0-10.5-9-9.5-19.5s-16.669-11.739-22.5,14.5c-1,4.5,3,17,25,11"></path>
		<path fill="#1A1A1A" d="M52.627,53.235c0,0,10.5,9,9.5,19.5s16.669,11.739,22.5-14.5c1-4.5-3-17-25-11"></path>
		<circle fill="#1A1A1A" cx="50" cy="50.008" r="8.248"></circle>

</g>

</g>
</svg>